# xmcd
#
# Track frame offsets: 
#        150
#        16850
#        33344
#        51721
#        74824
#        93312
#        121527
#        141422
#        168377
#
# Disc length: 2526 seconds
#
# Revision: 1
# Processed by: cddbd v1.5.2PL0 Copyright (c) Steve Scherf et al.
# Submitted via: ExactAudioCopyFreeDBPlugin 1.0
#
DISCID=7d09dc09
DTITLE=The Petting Blues Band - Ridin'
DYEAR=2016
DGENRE=Blues
TTITLE0=Ridin'
TTITLE1=Immersion
TTITLE2=Miner's Blues
TTITLE3=She Told Me
TTITLE4=Women and Blues
TTITLE5=So You Say
TTITLE6=Spellbound
TTITLE7=Dragon
TTITLE8=Southern Railroad
EXTD=Novi Sad, Serbia
EXTT0=
EXTT1=
EXTT2=
EXTT3=
EXTT4=
EXTT5=
EXTT6=
EXTT7=
EXTT8=
PLAYORDER=
